<svg version="1" xmlns="http://www.w3.org/2000/svg" width="1365.333" height="1365.333" viewBox="0 0 1024.000000 1024.000000"><path d="M479 .6c-1.9.2-8.7.9-15 1.5C381.2 9.8 299 41.8 230.5 93 210 108.4 180 134.7 180 137.4c0 1.3 59.1 60.6 60.4 60.6.5 0 4.8-3.7 9.5-8.3 23.6-22.7 53.6-43.9 86.1-61 35.1-18.5 80-33 119.5-38.6 48.7-7 96-5.1 142.5 5.5 64.6 14.8 129.1 49.2 175.5 93.5 5.1 4.9 9.6 8.9 10.1 8.9s14.4-13.5 30.8-29.9c19.6-19.6 29.7-30.4 29.3-31.3-.6-1.8-18.8-18.6-31.7-29.3C749.1 55.2 671.1 19.4 591 6.1 564.3 1.7 552.5.8 517 .5c-19-.2-36.1-.1-38 .1z"/><path d="M487.5 171.1c-57.1 4.5-112.6 26.1-158.7 61.6-8.1 6.2-28.8 24.4-28.8 25.3 0 .3 13.7 14.2 30.4 30.9l30.4 30.4 8.7-7.7c33-29.4 72.1-47.5 114.3-53.1 23.5-3.1 55.5-1.5 77.7 3.9 34.8 8.5 65.6 24.8 93 49.2l8.7 7.7 30.4-30.4c16.7-16.7 30.3-30.7 30.2-31-.2-.4-4.6-4.6-9.8-9.4-61-55.9-143.1-83.9-226.5-77.4zM369.6 386.1c-14.2 4.9-24.4 16.4-27.5 30.9-.9 4.2-1.1 70-.9 269l.3 263.5 3.2 6.8c6.1 12.8 18 22.2 31.2 24.7 7.3 1.4 264.9 1.4 272.2 0 13.2-2.5 25.1-11.9 31.2-24.7l3.2-6.8.3-264.5c.2-240 .1-264.9-1.4-269.9-4.2-14.6-13.4-24.4-27.2-29-6.1-2.1-7.3-2.1-142.4-2.1-134.5.1-136.4.1-142.2 2.1zM536 473.5c4.7 1.5 10.8 3.9 13.5 5.3 22.5 11.3 39.1 32.2 45.2 56.8 2.5 10.3 2.2 29.6-.6 39.8-7.6 28.4-28.3 50.4-55.8 59.6-46 15.3-95.8-12-108.4-59.5-2.6-9.5-3.1-28.6-1-38 6.5-29.9 28.4-54.1 57.4-63.5 10.3-3.3 15.1-3.9 28.7-3.5 10.2.2 14.1.8 21 3z"/></svg>